# xmcd
#
# Track frame offsets: 
#        150
#        25395
#        38330
#        51000
#        61545
#        74222
#        81835
#        91085
#        106287
#        119340
#        124440
#        147892
#        148962
#        158967
#        186125
#        204047
#        222072
#        237250
#
# Disc length: 3452 seconds
#
# Revision: 0
# Processed by: cddbd v1.5.1PL0 Copyright (c) Steve Scherf et al.
# Submitted via: ExactAudioCopy v0.95b3
#
DISCID=fd0d7a12
DTITLE=James Booker - United, Our Thing Will Stand - CD2
DYEAR=1999
DGENRE=Blues
TTITLE0=Medley: Suspicious Blues - Let's Get Right - On The Sunny Side
TTITLE0=of the Street
TTITLE1=Wandering
TTITLE2=Godfather Theme
TTITLE3=Come On To My House - 1-2-3
TTITLE4=Goin' Down Slow
TTITLE5=Jam For Poops
TTITLE6=Every Day I Have the Blues
TTITLE7=Sing a Happy Song
TTITLE8=Booker's Blues
TTITLE9=La Cucaracha - Iko Iko
TTITLE10=St. James Infirmary - Black Night
TTITLE11=Booker's Original Vamp
TTITLE12=Baby Face
TTITLE13=Since I Fell For You
TTITLE14=People Get Ready
TTITLE15=It Depends
TTITLE16=Everybody's Somebody's Fool
TTITLE17=10 Commandments for the Street Academy - United, Our Thing Wi
TTITLE17=ll Stand
EXTD=
EXTT0=
EXTT1=
EXTT2=
EXTT3=
EXTT4=
EXTT5=
EXTT6=
EXTT7=
EXTT8=
EXTT9=
EXTT10=
EXTT11=
EXTT12=
EXTT13=
EXTT14=
EXTT15=
EXTT16=
EXTT17=
PLAYORDER=
